# Alias OBJ Model File
# Exported from SketchUp, (c) 2000-2012 Trimble Navigation Limited
# File units = inches

mtllib ec8f01b8-dba3-4c27-87b4-6d0835763d11.mtl

g Mesh1 table Model

usemtl FrontColor
v -45.6717 26.9629 0.0705401
vt -45.2778 26.9039
vn 0.996192 -0.0863399 0.0121472
v -48.0123 -0.0425055 0.0705401
vt -45.3064 -0.202749
v -47.4602 -0.0425055 -45.2038
vt -0.0286339 -0.202749
v -45.1197 26.9629 -45.2038
vt -9.6065e-05 26.9039
f 1/1/1 2/2/1 3/3/1 4/4/1 

vt -2.9005 4.57553e-14
vn 4.37906e-47 -3.82857e-16 1
vt -0.559939 27.0054
v -48.1717 26.9629 0.0705401
vt -3.05994 27.0054
v -49.5123 -0.0425055 0.0705401
vt -4.4005 5.99662e-14
f 2/5/2 1/6/2 5/7/2 6/8/2 

vt 3.05994 45.2744
vn -2.85327e-15 1 8.22168e-17
vt 0.559939 45.2744
vt 0.00787886 8.30448e-14
v -47.6197 26.9629 -45.2038
vt 2.50788 8.30448e-14
f 5/9/3 1/10/3 4/11/3 7/12/3 

vt 0.00787886 27.0054
vn -4.16994e-30 2.10541e-15 -1
vt 2.34844 5.32907e-14
v -48.9602 -0.0425055 -45.2038
vt 3.84844 4.26326e-14
vt 2.50788 27.0054
f 4/13/4 3/14/4 8/15/4 7/16/4 

vt -2.9005 45.2744
vn -3.55271e-15 -1 -2.30001e-16
vt -4.4005 45.2744
vt -3.84844 2.84217e-14
vt -2.34844 2.84217e-14
f 2/17/5 6/18/5 8/19/5 3/20/5 

vt 45.3246 -0.190775
vn -0.998696 0.0495757 -0.0121778
vt 45.3083 26.8479
vt 0.0305779 26.8479
vt 0.0469231 -0.190775
f 6/21/6 5/22/6 7/23/6 8/24/6 

g Mesh2 table Model

v -77.4821 29.4957 0.0705401
vt 45.6657 27.2705
vn -0.997538 0.0690604 -0.0121636
v -76.93 29.4957 -45.2038
vt 0.387952 27.2705
v -77.1031 26.9957 -45.2038
vt 0.390063 24.7645
v -77.6552 26.9957 0.0705401
vt 45.6678 24.7645
f 9/25/7 10/26/7 11/27/7 12/28/7 

vt 31.832 -0.000167697
vn 0.000465829 1 5.68016e-06
vt 32.3841 45.2742
v -45.8369 29.4809 0.0705401
vt 0.73889 45.2742
v -45.2849 29.4809 -45.2038
vt 0.18683 -0.000167697
f 10/29/8 9/30/8 13/31/8 14/32/8 

v -74.0714 -0.0277642 0.0705401
vt -28.9596 0.0147412
vn -1.16783e-15 7.32137e-17 1
v -75.1376 26.9945 0.0705401
vt -30.0258 27.037
v -45.6638 26.9809 0.0705401
vt -0.55206 27.0235
vt -0.725137 29.5235
vt -32.3703 29.5382
vt -32.5434 27.0382
v -77.6376 26.9957 0.0705401
vt -32.5258 27.0382
v -75.5714 -0.0277642 0.0705401
vt -30.4596 0.0147412
f 15/33/9 16/34/9 17/35/9 13/36/9 9/37/9 12/38/9 18/39/9 19/40/9 

v -73.5194 -0.0277642 -45.2038
vt -0.346367 1.13453
vn 0.999148 0.0394218 0.0121833
v -74.5855 26.9945 -45.2038
vt -0.359366 28.1778
vt -45.6371 28.1778
vt -45.6241 1.13453
f 20/41/10 21/42/10 16/43/10 15/44/10 

v -75.0194 -0.0277642 -45.2038
vt 29.9076 0.0147412
vn -5.27766e-17 2.48912e-15 -1
v -77.0855 26.9957 -45.2038
vt 31.9737 27.0382
vt 31.9913 27.0382
vt 31.8183 29.5382
vt 0.173077 29.5235
v -45.1118 26.9809 -45.2038
vt 4.5e-30 27.0235
vt 29.4738 27.037
vt 28.4076 0.0147412
f 22/45/11 23/46/11 11/47/11 10/48/11 14/49/11 24/50/11 21/51/11 20/52/11 

vt 45.6424 2.29437
vn -0.997016 -0.0762294 -0.0121573
vt 45.6676 29.3967
vt 0.389848 29.3967
vt 0.364656 2.29437
f 19/53/12 18/54/12 23/55/12 22/56/12 

vt -32.0038 -0.000151837
vn -0.000460789 -1 -5.6187e-06
vt -31.9862 -0.000151837
vt -32.5382 45.2742
vt -32.5559 45.2742
f 11/57/13 23/58/13 18/59/13 12/60/13 

vt -28.9596 45.2744
vn -1.18424e-14 -1 -8.41142e-16
vt -30.4596 45.2744
vt -29.9076 -1.23995e-17
vt -28.4076 -1.23995e-17
f 15/61/14 19/62/14 22/63/14 20/64/14 

vt -0.00211028 29.4649
vn 0.997538 0.0690604 0.0121636
vt -45.2798 29.4649
vt -45.2777 26.9589
vt -8.52588e-14 26.9589
f 14/65/15 13/66/15 17/67/15 24/68/15 

vt -0.564512 45.2742
vt -30.0383 45.2742
vt -29.4862 -0.000151837
vt -0.0124521 -0.000151837
f 17/69/13 16/70/13 21/71/13 24/72/13 

g Mesh3 Group1 Model

v 12.3143 14.5215 -2.885
vt -3.21358 14.4269
vn -0.998327 1.17485e-16 -0.0578254
v 13.3374 14.5215 -20.5483
vt -20.9065 14.4269
v 13.4707 13.2962 -22.8497
vt -23.2117 13.2016
v 13.4707 13.0215 -22.8497
vt -23.2117 12.9269
v 13.1344 13.0215 -17.0442
vt -17.3965 12.9269
v 12.3143 13.0215 -2.885
vt -3.21358 12.9269
f 25/73/16 26/74/16 27/75/16 28/76/16 29/77/16 30/78/16 

vt 3.17052 3.03532
vn -2.17866e-18 1 7.10158e-16
v 32.0176 14.5215 -2.885
vt 22.8739 3.03532
v 30.8658 14.5215 -22.8497
vt 21.7221 23
v 13.4818 14.5215 -22.8497
vt 4.33809 23
vt 4.19362 20.6986
f 25/79/17 31/80/17 32/81/17 33/82/17 26/83/17 

v 15.0698 13.0215 -2.885
vt 5.92605 12.9269
vn 3.44989e-16 -6.04014e-16 1
v 32.0176 13.0215 -2.885
vt 22.8739 12.9269
vt 22.8739 14.4269
vt 3.17052 14.4269
vt 3.17052 12.9269
v 12.3209 13.0215 -2.885
vt 3.17715 12.9269
f 34/84/18 35/85/18 31/86/18 25/87/18 30/88/18 36/89/18 

v 14.9689 13.0215 -22.8497
vt -5.82515 23
vn -3.37385e-19 -1 -7.12075e-16
v 29.3604 13.0215 -22.8497
vt -20.2167 23
v 29.2462 13.0215 -2.90513
vt -20.1025 3.05544
v 32.0171 13.0215 -2.90513
vt -22.8733 3.05544
vt -22.8739 3.03532
vt -5.92605 3.03532
f 37/90/19 38/91/19 39/92/19 40/93/19 35/94/19 34/95/19 

vt -4.33809 14.4269
vn 0 0 -1
vt -21.7221 14.4269
v 30.863 13.0946 -22.8497
vt -21.7192 13
v 29.3604 13.0946 -22.8497
vt -20.2167 13
vt -20.2167 12.9269
vt -5.82515 12.9269
vt -4.32692 12.9269
vt -4.32692 13.2016
f 33/96/20 32/97/20 41/98/20 42/99/20 38/100/20 37/101/20 28/102/20 27/103/20 

v 30.8658 26.0215 -22.8497
vt 21.7026 25.9269
vn -0.000847462 2.88977e-08 1
v 30.8658 30.5215 -22.8497
vt 21.7026 30.4269
v 13.4707 30.5215 -22.8644
vt 4.30742 30.4269
v 13.4707 26.0215 -22.8644
vt 4.30742 25.9269
v 13.5875 26.0215 -22.8643
vt 4.42428 25.9269
v 13.4707 13.1946 -22.8644
vt 4.30742 13.1
v 29.3605 13.0946 -22.851
vt 20.1972 13
vt 21.6997 13
vt 21.7026 14.4269
f 43/104/21 44/105/21 45/106/21 46/107/21 47/108/21 48/109/21 49/110/21 41/111/21 32/112/21 

vt 21.7107 25.9269
vn 0.99834 2.86494e-12 -0.0575965
v 30.6927 26.0215 -25.8497
vt 24.7157 25.9269
v 30.6927 30.5215 -25.8497
vt 24.7157 30.4269
vt 21.7107 30.4269
f 43/113/22 50/114/22 51/115/22 44/116/22 

v 33.6927 26.0215 0.150319
vt 24.549 1.80007e-14
vn 1.55287e-16 1 6.94286e-16
v 35.1927 26.0215 -25.8497
vt 26.049 26
vt 21.549 26
v 32.1927 26.0215 0.150319
vt 23.049 1.80007e-14
f 52/117/23 53/118/23 50/119/23 43/81/23 54/120/23 

vt 27.4572 25.9269
vn 0.99834 -4.47691e-17 0.0575965
vt 1.41394 25.9269
v 33.6927 11.5215 0.150319
vt 1.41394 11.4269
v 35.1927 11.5215 -25.8497
vt 27.4572 11.4269
f 53/121/24 52/122/24 55/123/24 56/124/24 

vt 24.549 25.9269
vn -3.20114e-15 -7.35044e-16 1
vt 23.049 25.9269
v 32.1927 11.5215 0.150319
vt 23.049 11.4269
vt 24.549 11.4269
f 52/125/25 54/126/25 57/127/25 55/128/25 

vt -21.7106 25.9268
vn -0.99834 -6.28184e-06 0.0575991
vt -21.7106 14.4268
vt -1.71277 14.4268
vt -1.71277 12.9268
vt -1.73289 12.9268
v 32.0165 11.5215 -2.90513
vt -1.73292 11.4268
vt 1.3276 11.4268
vt 1.3276 25.9268
f 43/129/26 32/130/26 31/131/26 35/132/26 40/133/26 58/134/26 57/135/26 54/136/26 

v 32.0171 0.0946392 -2.90513
vt 22.8733 2.90255e-05
vn 0 0 1
vt 22.8727 11.4269
vt 22.8733 12.9269
vt 20.1025 12.9269
v 29.2462 0.0946392 -2.90513
vt 20.1025 2.90255e-05
f 59/137/27 58/138/27 40/139/27 39/140/27 60/141/27 

v 30.863 13.0215 -22.8497
vt 21.7071 12.9267
vn 0.998331 8.2819e-06 -0.0577584
v 31.8091 13.0215 -6.49883
vt 5.32893 12.9267
v 31.8091 11.5215 -6.49883
vt 5.32893 11.4267
vt 1.72925 11.4267
vt 1.72922 -0.000161554
v 30.863 0.0946392 -22.8497
vt 21.7071 -0.000161553
v 30.863 11.5216 -22.8497
vt 21.7071 11.4268
f 61/142/28 62/143/28 63/144/28 58/145/28 59/146/28 64/147/28 65/148/28 

vt -21.7192 23
vn 0 -1 -7.6048e-16
v 30.8658 13.0215 -22.8497
vt -21.7221 23
vt -22.6654 6.64915
f 61/149/29 66/150/29 62/151/29

vt 21.7192 12.9269
vn 3.44967e-20 -7.44784e-07 1
vt 21.7192 11.427
vt 21.7221 12.9269
f 61/152/30 65/153/30 66/154/30

v 30.8658 11.5215 -22.8497
vt 21.713 11.4269
vn -0.000395098 -6.73657e-23 1
vt 21.713 12.9269
vt 21.7101 11.427
f 67/155/31 66/156/31 65/157/31

vt -21.7107 11.4269
vn -0.99834 6.10961e-26 0.0575965
vt -5.33266 11.4269
vt -5.33266 12.9269
vt -21.7107 12.9269
f 67/158/32 63/159/32 62/160/32 66/161/32 

vt -26.049 26
vn -4.15168e-16 -1 -7.8998e-16
vt -24.549 6.58705e-14
vt -23.049 9.02704e-15
vt -22.8727 3.05544
v 30.6927 11.5215 -25.8497
vt -21.549 26
f 56/162/33 55/163/33 57/164/33 58/165/33 63/151/33 67/150/33 68/166/33 

v 13.6333 11.5216 -25.6832
vt -4.48952 25.8332
vn -2.09109e-06 -1 2.71427e-05
v 13.6438 11.5215 -25.8497
vt -4.49998 25.9997
vt -21.549 25.9997
vt -21.722 22.9997
vt -21.7192 22.9997
v 29.3605 11.5216 -22.851
vt -20.2167 23.001
v 14.9688 11.5216 -22.8632
vt -5.82506 23.0132
v 13.4688 11.5216 -22.8632
vt -4.32505 23.0132
v 13.4688 11.5216 -22.8648
vt -4.32505 23.0148
v 13.4707 11.5216 -22.8648
vt -4.3269 23.0148
f 69/167/34 70/168/34 68/169/34 67/170/34 65/171/34 71/172/34 72/173/34 73/174/34 74/175/34 75/176/34 

v 13.6438 11.5215 -25.8644
vt -4.50004 26.0147
vn 3.78716e-06 -1 -3.384e-07
vt -4.50004 26
vt -4.48959 25.8336
v 12.0116 11.5215 0.135578
vt -2.86793 0.0147451
v 10.5116 11.5215 0.135578
vt -1.36793 0.0147451
v 9.14375 11.5215 -25.8644
vt -4.32756e-05 26.0147
f 76/177/35 70/178/35 69/179/35 77/180/35 78/181/35 79/182/35 

vt 26.2456 11.4524
vn 0.997994 -0.0090729 0.0626609
vt 26.0641 11.4525
vt 26.2309 11.4524
f 76/183/36 69/184/36 70/185/36

vt 23.2407 13.1256
f 48/186/36 69/184/36 76/183/36

vt 20.9208 14.4525
f 26/187/36 69/184/36 48/186/36

vt 0.194424 11.4524
f 69/184/36 26/187/36 77/188/36

vt 23.2479 25.953
f 47/189/36 77/188/36 26/187/36

v 12.1438 26.0215 0.135578
vt 0.202703 25.953
f 77/188/36 47/189/36 80/190/36

vt 3 0.0147412
vn 3.40196e-16 1 -1.60156e-16
vt 4.44379 23.0146
vt 4.32692 23.0147
v 13.6438 26.0215 -25.8644
vt 4.5 26.0147
v 9.27587 26.0215 -25.8644
vt 0.132114 26.0147
v 10.6438 26.0215 0.135578
vt 1.5 0.0147412
f 80/191/37 47/192/37 46/193/37 81/194/37 82/195/37 83/196/37 

v 13.6438 30.5215 -25.8644
vt -26.2307 30.4269
vn -0.99834 2.42517e-16 -0.0575965
vt -26.2307 25.9269
vt -23.2258 25.9269
vt -23.2258 30.4269
f 84/197/38 81/198/38 46/199/38 45/200/38 

vt -4.4775 11.4269
vn 0.000864641 -3.23697e-15 -1
vt -4.4775 25.9269
vt -4.4775 30.4269
vt -21.5265 30.4269
vt -21.5265 25.9269
vt -21.5265 11.4269
f 76/201/39 81/202/39 84/203/39 51/204/39 50/205/39 68/206/39 

vt -0.132114 25.9269
vn 6.50408e-15 -9.83022e-15 -1
vt -4.5 25.9269
vt -4.5 11.4269
vt 1.69202e-13 11.4269
f 82/207/40 81/208/40 76/209/40 79/210/40 

vt 0.0640866 25.9395
vn -0.998578 0.00909835 0.0525362
vt -25.9719 25.9395
vt -25.9788 11.4389
vt 0.0571456 11.4389
f 83/211/41 82/212/41 79/213/41 78/214/41 

vt 3 25.9269
vn 3.70629e-14 2.5949e-15 1
vt 1.5 25.9269
vt 1.36789 11.4269
vt 2.86789 11.4269
f 80/215/42 83/216/42 78/217/42 77/218/42 

vn -7.02812e-23 1 6.93972e-16
f 51/119/43 84/194/43 45/193/43 44/81/43 

vt -21.549 25.9269
vn 0 3.92024e-15 -1
vt -26.049 25.9269
vt -26.049 11.4269
vt -21.549 11.4269
f 50/219/44 53/220/44 56/221/44 68/222/44 

vt -4.5 26.0147
vn -1.46358e-31 -1 -1.44603e-12
vt -4.5 26
f 76/223/45 68/166/45 70/224/45

v 13.4707 13.0215 -22.8648
vt -23.2264 12.927
vn -0.998334 2.17738e-05 -0.0577059
vt -23.2261 13.1001
vt -26.2311 11.427
vt -26.2164 11.427
vt -26.0496 11.427
vt -23.2264 11.4271
f 85/225/46 48/226/46 76/227/46 70/228/46 69/229/46 75/230/46 

vt 4.30711 13.0516
vn -0.000860653 -0.00210113 0.999997
vt 4.30713 12.8785
vt 20.1969 12.9516
f 48/231/47 85/232/47 49/233/47

vt 4.30185 14.011
vn -0.00108893 0.0477348 0.998859
v 14.9688 13.0215 -22.8632
vt 5.79999 14.011
vt 20.1916 14.0842
f 85/234/48 86/235/48 49/236/48

vt 5.82515 23
vn -1.18503e-15 1 -6.83953e-17
vt 5.82508 23.0135
vt 4.32694 23.0151
v 13.4688 13.0215 -22.8648
vt 4.32508 23.0151
vt 3.99066 17.1945
vt 4.32692 23
f 37/237/49 86/238/49 85/239/49 87/240/49 29/241/49 28/242/49 

v 15.07 0.0959203 -2.85078
vt 2.97111 0.0013101
vn 0.999987 -4.65878e-17 -0.0050536
v 14.9764 0.0959203 -21.3634
vt 21.4839 0.0013101
v 14.9764 4.58843 -21.3632
vt 21.4838 4.49382
v 14.9688 4.58846 -22.8632
vt 22.9838 4.49385
vt 22.9837 11.427
vt 22.9837 12.9269
vt 22.9703 12.9269
vt 3.00533 12.9269
v 15.07 13.0215 -2.85054
vt 2.97088 12.9269
f 88/243/50 89/244/50 90/245/50 91/246/50 72/247/50 86/248/50 37/249/50 34/250/50 92/251/50 

v 12.3189 0.0959203 -2.85078
vt -3.17517 3.0011
vn 5.35927e-16 -1 -1.12122e-15
v 13.4688 0.0959203 -22.8634
vt -4.32507 23.0137
v 14.9688 0.0959203 -22.8634
vt -5.82508 23.0137
vt -5.83266 21.5137
vt -5.92622 3.0011
f 93/252/51 94/253/51 95/254/51 89/255/51 88/256/51 

vt -23.2253 12.9269
vn -0.998353 -1.93361e-06 -0.0573623
vt -23.2253 11.427
vt -23.2237 11.427
vt -23.2239 0.0013043
vt -3.17829 0.0013043
v 12.3189 13.0215 -2.85054
vt -3.17806 12.9269
vt -3.21257 12.9269
vt -17.3951 12.9269
f 87/257/52 74/258/52 73/259/52 94/260/52 93/261/52 96/262/52 36/263/52 29/264/52 

vt -4.32508 12.9269
vn 1.10932e-18 -2.93261e-07 -1
vt -4.32694 12.9269
vt -4.32692 11.427
vt -4.32508 11.427
f 87/265/53 85/266/53 75/267/53 74/268/53 

vt -4.32468 0.000848778
vn 1.71274e-05 2.00454e-05 -1
vt -4.32468 11.4266
vt -5.82469 11.4266
vt -5.82469 4.49338
vt -5.82469 0.000848777
f 94/269/54 73/270/54 72/271/54 91/272/54 95/273/54 

vt -23.0186 4.49385
vn -1 2.0478e-07 -0.000862782
vt -23.0187 0.00131129
v 14.9688 0.0946408 -22.8634
vt -23.0187 3.18619e-05
v 14.9675 0.0946118 -21.3634
vt -21.5187 2.83642e-06
v 14.9675 0.0959203 -21.3634
vt -21.5187 0.00131129
v 14.9675 1.59602 -21.3633
vt -21.5187 1.50141
f 91/274/55 95/275/55 97/276/55 98/277/55 99/278/55 100/279/55 

vt 22.984 0.0013101
vn 0.999987 2.00788e-16 -0.0050536
f 95/280/56 91/246/56 90/245/56 89/244/56 

vt -5.80523 4.49297
vn 0.000862769 3.7812e-05 -1
v 29.3605 4.58845 -22.8508
vt -20.1968 4.49297
vt -5.80522 0.000439715
f 91/281/57 101/282/57 95/283/57

vt 5.83266 21.5136
vn 9.77906e-08 1 1.93504e-05
v 29.3519 4.58842 -21.3508
vt 20.2081 21.5012
vt 20.2167 23.0012
vt 5.82508 23.0136
f 90/284/58 102/285/58 101/286/58 91/287/58 

vt 20.1895 4.49307
vn -0.000862769 -3.48203e-05 1
vt 5.8141 4.49307
vt 5.8141 0.000560812
vt 5.80522 0.000560812
vt 5.80522 -0.00074764
v 29.3519 0.0946247 -21.351
vt 20.1896 -0.000734774
f 102/288/59 90/289/59 89/290/59 99/291/59 98/292/59 103/293/59 

vt 5.77145 1.50069
vn -0.00243211 -3.32705e-05 0.999997
vt 5.77145 0.000593859
vt 5.78032 0.000593859
vt 5.78032 4.4931
f 100/294/60 99/295/60 89/296/60 90/297/60 

vt -21.484 1.519
vn -0.999983 0.00296567 0.00505364
vt -21.4838 4.51142
vt -22.9838 4.51145
f 100/298/61 90/299/61 91/300/61

vt -5.82379 21.5137
vn 4.02228e-07 -1 -1.45113e-05
v 29.3605 0.0946392 -22.851
vt -20.2167 23.0013
vt -20.2081 21.5013
f 98/301/62 97/254/62 104/302/62 103/303/62 

vt -20.1968 -0.00077245
vn 0.000862769 3.48184e-05 -1
vt -5.80522 -0.000770802
vt -20.1968 4.49304
f 104/304/63 97/305/63 101/306/63

vt -5.72964 0.24265
vn 0.00414471 -0.0104759 -0.999937
vt -20.1212 4.73543
vt -5.72964 0.241371
f 95/307/64 101/308/64 97/309/64

vt -21.6165 4.49381
vn -0.999984 9.06228e-09 -0.00572707
vt -23.1165 4.49384
vt -23.1167 2.92075e-05
vt -21.6167 1.46952e-05
f 102/310/65 101/311/65 104/312/65 103/313/65 

vt -3.17049 12.9269
vn -0.999984 -7.89022e-07 -0.00572571
vt -23.1154 12.9269
vt -23.1167 11.427
vt -23.1165 4.49383
vt -21.6165 4.4938
vt -21.6166 -1.33408e-06
vt -3.17049 1.31783e-05
f 39/314/66 38/315/66 71/316/66 101/317/66 102/318/66 103/319/66 60/320/66 

vt -23.5157 13
vn -0.999667 -3.48465e-09 -0.0258242
vt -23.5157 11.427
vt -23.5144 12.9269
vt -23.5144 13
f 49/321/67 71/322/67 38/323/67 42/324/67 

vt 20.1972 11.427
vn -0.00084742 1.39816e-07 1
vt 5.80558 11.427
f 71/325/68 49/110/68 72/326/68

vt 5.80558 12.9269
vn -0.000847437 2.9326e-07 1
f 86/327/69 72/326/69 49/110/69

vt 20.2167 23
vn 0 1 -0
vt 21.7192 23
vt 20.2167 23.0013
f 42/328/70 41/329/70 49/330/70

vt -20.198 4.977e-05
vn 0.000813344 -9.01242e-07 -1
vt -20.198 4.49386
vt -20.198 11.4271
vt -21.7005 11.4271
vt -21.7005 4.977e-05
f 104/331/71 101/332/71 71/333/71 65/334/71 64/335/71 

vt 23.0187 3.30005e-05
vn 1 -1.96814e-07 0.000862824
vt 23.0186 4.49385
v 29.3592 1.59602 -21.3509
vt 21.5187 1.50141
v 29.3592 0.0946102 -21.351
vt 21.5187 3.97502e-06
f 104/336/72 101/337/72 105/338/72 106/339/72 

vt 21.6167 1.45241
vn 0.999981 0.00243841 0.00572819
vt 23.1165 4.44486
vt 21.6165 4.44483
f 105/340/73 101/341/73 102/342/73

vt 20.2379 1.50069
vn 0.00104763 -3.32641e-05 0.999999
vt 20.2306 4.4931
vt 20.2306 -0.000700004
vt 20.2379 -0.000714516
f 105/343/74 102/344/74 103/345/74 106/346/74 

vt -21.7141 -19.9866
vn -0.00198947 -0.999998 -2.10668e-05
vt -21.7141 -19.9793
vt -23.2141 -19.972
f 106/347/75 103/348/75 104/349/75

vt -18.3805 -23.0895
vn -0.00198974 -0.999998 0.000288281
vt 0.25586 -23.075
vt -18.3815 -23.0822
f 106/350/76 59/351/76 103/352/76

vt -20.2154 21.5013
vn 1.07437e-05 -1 -7.63572e-07
f 106/353/77 104/302/77 64/149/77 59/93/77 

vn 4.98051e-22 -1 7.86754e-07
f 60/92/78 103/303/78 59/93/78

vt 5.92622 12.9269
vn -2.8144e-21 -1.81099e-05 1
vt 3.17517 12.9269
vt 3.17517 0.00125575
vt 5.92622 0.00125575
f 92/354/79 96/355/79 93/356/79 88/357/79 

vt 5.92622 3.00086
vn -3.2285e-16 1 2.57697e-14
vt 5.92605 3.03532
vt 3.17715 3.03532
vt 3.17517 3.00086
f 92/358/80 34/359/80 36/360/80 96/361/80 

vt -3.17052 3.03532
vn -5.3641e-13 -1 -3.18228e-14
vt -3.99066 17.1945
vt -3.17715 3.03532
f 30/362/81 29/363/81 36/364/81

vt 23.2266 14.4525
f 47/189/36 26/187/36 33/365/36

f 33/365/36 48/186/36 47/189/36

vt 23.2259 13.2271
f 27/366/36 48/186/36 33/365/36

f 26/187/36 48/186/36 27/366/36

g Mesh4 Group2 Model

v -27.2992 14.4269 -2.85815
v -26.2761 14.4269 -20.5215
v -26.1428 13.2016 -22.8228
v -26.1428 12.9269 -22.8228
v -26.4791 12.9269 -17.0174
v -27.2992 12.9269 -2.85815
f 107/73/16 108/74/16 109/75/16 110/76/16 111/77/16 112/78/16 

v -7.5959 14.4269 -2.85815
v -8.74771 14.4269 -22.8228
v -26.1317 14.4269 -22.8228
f 107/79/17 113/80/17 114/81/17 115/82/17 108/83/17 

v -24.5437 12.9269 -2.85815
v -7.5959 12.9269 -2.85815
v -27.2926 12.9269 -2.85815
f 116/84/18 117/85/18 113/86/18 107/87/18 112/88/18 118/89/18 

v -24.6446 12.9269 -22.8228
v -10.2531 12.9269 -22.8228
v -10.3673 12.9269 -2.87828
v -7.59644 12.9269 -2.87828
f 119/90/19 120/91/19 121/92/19 122/93/19 117/94/19 116/95/19 

v -8.75053 13 -22.8228
v -10.2531 13 -22.8228
f 115/96/20 114/97/20 123/98/20 124/99/20 120/100/20 119/101/20 110/102/20 109/103/20 

v -8.74771 25.9269 -22.8228
v -8.74771 30.4269 -22.8228
v -26.1428 30.4269 -22.8376
v -26.1428 25.9269 -22.8376
v -26.026 25.9269 -22.8375
v -26.1428 13.1 -22.8376
v -10.2531 13 -22.8241
f 125/104/21 126/105/21 127/106/21 128/107/21 129/108/21 130/109/21 131/110/21 123/111/21 114/112/21 

v -8.92078 25.9269 -25.8228
v -8.92078 30.4269 -25.8228
f 125/113/22 132/114/22 133/115/22 126/116/22 

v -5.92078 25.9269 0.177165
v -4.42078 25.9269 -25.8228
v -7.42078 25.9269 0.177165
f 134/117/23 135/118/23 132/119/23 125/81/23 136/120/23 

v -5.92078 11.4269 0.177165
v -4.42078 11.4269 -25.8228
f 135/121/24 134/122/24 137/123/24 138/124/24 

v -7.42078 11.4269 0.177165
f 134/125/25 136/126/25 139/127/25 137/128/25 

v -7.59706 11.4269 -2.87828
f 125/129/26 114/130/26 113/131/26 117/132/26 122/133/26 140/134/26 139/135/26 136/136/26 

v -7.59644 2.90255e-05 -2.87828
v -10.3673 2.90255e-05 -2.87828
f 141/137/27 140/138/27 122/139/27 121/140/27 142/141/27 

v -8.75053 12.9269 -22.8228
v -7.80439 12.9269 -6.47198
v -7.80439 11.4269 -6.47198
v -8.75053 2.90255e-05 -22.8228
v -8.75053 11.427 -22.8228
f 143/142/28 144/143/28 145/144/28 140/145/28 141/146/28 146/147/28 147/148/28 

v -8.74771 12.9269 -22.8228
f 143/149/29 148/150/29 144/151/29

f 143/152/30 147/153/30 148/154/30

v -8.74771 11.4269 -22.8228
f 149/155/31 148/156/31 147/157/31

f 149/158/32 145/159/32 144/160/32 148/161/32 

v -8.92078 11.4269 -25.8228
f 138/162/33 137/163/33 139/164/33 140/165/33 145/151/33 149/150/33 150/166/33 

v -25.9802 11.427 -25.6564
v -25.9698 11.4269 -25.8228
v -10.2531 11.427 -22.8241
v -24.6447 11.427 -22.8363
v -26.1447 11.427 -22.8363
v -26.1447 11.427 -22.8379
v -26.1428 11.427 -22.8379
f 151/167/34 152/168/34 150/169/34 149/170/34 147/171/34 153/172/34 154/173/34 155/174/34 156/175/34 157/176/34 

v -25.9698 11.4269 -25.8376
v -27.6019 11.4269 0.162423
v -29.1019 11.4269 0.162423
v -30.4698 11.4269 -25.8376
f 158/177/35 152/178/35 151/179/35 159/180/35 160/181/35 161/182/35 

f 158/183/36 151/184/36 152/185/36

f 130/186/36 151/184/36 158/183/36

f 108/187/36 151/184/36 130/186/36

f 151/184/36 108/187/36 159/188/36

f 129/189/36 159/188/36 108/187/36

v -27.4698 25.9269 0.162423
f 159/188/36 129/189/36 162/190/36

v -25.9698 25.9269 -25.8376
v -30.3376 25.9269 -25.8376
v -28.9698 25.9269 0.162423
f 162/191/37 129/192/37 128/193/37 163/194/37 164/195/37 165/196/37 

v -25.9698 30.4269 -25.8376
f 166/197/38 163/198/38 128/199/38 127/200/38 

f 158/201/39 163/202/39 166/203/39 133/204/39 132/205/39 150/206/39 

f 164/207/40 163/208/40 158/209/40 161/210/40 

f 165/211/41 164/212/41 161/213/41 160/214/41 

f 162/215/42 165/216/42 160/217/42 159/218/42 

f 133/119/43 166/194/43 127/193/43 126/81/43 

f 132/219/44 135/220/44 138/221/44 150/222/44 

f 158/223/45 150/166/45 152/224/45

v -26.1428 12.9269 -22.8379
f 167/225/46 130/226/46 158/227/46 152/228/46 151/229/46 157/230/46 

f 130/231/47 167/232/47 131/233/47

v -24.6447 12.9269 -22.8363
f 167/234/48 168/235/48 131/236/48

v -26.1447 12.9269 -22.8379
f 119/237/49 168/238/49 167/239/49 169/240/49 111/241/49 110/242/49 

v -24.5435 0.0013101 -2.82393
v -24.6371 0.0013101 -21.3365
v -24.6371 4.49382 -21.3364
v -24.6447 4.49385 -22.8364
v -24.5435 12.9269 -2.8237
f 170/243/50 171/244/50 172/245/50 173/246/50 154/247/50 168/248/50 119/249/50 116/250/50 174/251/50 

v -27.2946 0.0013101 -2.82393
v -26.1447 0.0013101 -22.8365
v -24.6447 0.0013101 -22.8365
f 175/252/51 176/253/51 177/254/51 171/255/51 170/256/51 

v -27.2946 12.9269 -2.8237
f 169/257/52 156/258/52 155/259/52 176/260/52 175/261/52 178/262/52 118/263/52 111/264/52 

f 169/265/53 167/266/53 157/267/53 156/268/53 

f 176/269/54 155/270/54 154/271/54 173/272/54 177/273/54 

v -24.6447 3.06731e-05 -22.8365
v -24.646 1.64763e-06 -21.3365
v -24.646 0.0013101 -21.3365
v -24.646 1.50141 -21.3365
f 173/274/55 177/275/55 179/276/55 180/277/55 181/278/55 182/279/55 

f 177/280/56 173/246/56 172/245/56 171/244/56 

v -10.2531 4.49384 -22.824
f 173/281/57 183/282/57 177/283/57

v -10.2617 4.49381 -21.324
f 172/284/58 184/285/58 183/286/58 173/287/58 

v -10.2616 1.45132e-05 -21.3241
f 184/288/59 172/289/59 171/290/59 181/291/59 180/292/59 185/293/59 

f 182/294/60 181/295/60 171/296/60 172/297/60 

f 182/298/61 172/299/61 173/300/61

v -10.2531 2.90255e-05 -22.8241
f 180/301/62 179/254/62 186/302/62 185/303/62 

f 186/304/63 179/305/63 183/306/63

f 177/307/64 183/308/64 179/309/64

f 184/310/65 183/311/65 186/312/65 185/313/65 

f 121/314/66 120/315/66 153/316/66 183/317/66 184/318/66 185/319/66 142/320/66 

f 131/321/67 153/322/67 120/323/67 124/324/67 

f 153/325/68 131/110/68 154/326/68

f 168/327/69 154/326/69 131/110/69

f 124/328/70 123/329/70 131/330/70

f 186/331/71 183/332/71 153/333/71 147/334/71 146/335/71 

v -10.2544 1.50141 -21.3241
v -10.2544 0 -21.3241
f 186/336/72 183/337/72 187/338/72 188/339/72 

f 187/340/73 183/341/73 184/342/73

f 187/343/74 184/344/74 185/345/74 188/346/74 

f 188/347/75 185/348/75 186/349/75

f 188/350/76 141/351/76 185/352/76

f 188/353/77 186/302/77 146/149/77 141/93/77 

f 142/92/78 185/303/78 141/93/78

f 174/354/79 178/355/79 175/356/79 170/357/79 

f 174/358/80 116/359/80 118/360/80 178/361/80 

f 112/362/81 111/363/81 118/364/81

f 129/189/36 108/187/36 115/365/36

f 115/365/36 130/186/36 129/189/36

f 109/366/36 130/186/36 115/365/36

f 108/187/36 130/186/36 109/366/36

